# xmcd CD database file
# Copyright (C) 1993-1996 Ti Kan
#
# Track frame offsets:
#  150
#  16813
#  35711
#  54406
#  73075
#  90498
#  108378
#  130826
#  145682
#
# Disc length: 2189 seconds
#
# Revision: 1
# Processed by: cddbd v1.5.2PL0 Copyright (c) Steve Scherf et al.
# Submitted via: Advanced CD Ripper Pro 2.0
#
DISCID=74088b09
DTITLE=HÜNER ÇOÞKUNER - NEREDE
DYEAR=2007
DGENRE=
TTITLE0=NEREDE
TTITLE1=AÞKA YAKALANDIM
TTITLE2=SERSERÝ AKÞAMLAR
TTITLE3=YALANCI
TTITLE4=AMAN KÝMSELER DUYMASIN
TTITLE5=SONBAHAR RÜZGARLARI
TTITLE6=ÇAL KANUNUM
TTITLE7=TÜRKÜ POTPORÝ
TTITLE8=AÞKA YAKALANDIM REMIX
EXTD=
EXTT0=
EXTT1=
EXTT2=
EXTT3=
EXTT4=
EXTT5=
EXTT6=
EXTT7=
EXTT8=
PLAYORDER=
